PathFileType	4	(X/Y/Z)	D:\TRACE\spot_10-12-23\spot_body_motion_2_3-v60.trc
DataRate	CameraRate	NumFrames	NumMarkers	Units	OrigDataRate	OrigDataStartFrame	OrigNumFrames
100.00	100.00	      14	9	mm	100.00	2626	      7000
Frame#	Time	front left toe			Front right toe			aft left toe			aft right toe			Arm			FL body			FR body			AL Body			AR Body			
		X1	Y1	Z1	X2	Y2	Z2	X3	Y3	Z3	X4	Y4	Z4	X5	Y5	Z5	X6	Y6	Z6	X7	Y7	Z7	X8	Y8	Z8	X9	Y9	Z9	

2626	26.250	-176.42769	11.33298	-73.05241	302.97528	31.16588	93.89317	-221.00351	50.74920	427.93689	283.49118	76.77849	587.67511	75.02284	813.67847	-203.69203	-13.21237	551.63690	-193.45502	135.80305	557.85400	-161.72981	-204.92418	594.08478	668.61694	-58.92547	594.10004	702.86530	
2627	26.260	-175.51273	11.26102	-72.99785	303.33249	31.14268	93.91782	-219.88960	50.23500	428.06381	284.00110	76.16351	587.49890	75.19058	813.23657	-203.68460	-13.10404	551.06262	-193.08411	136.11790	557.02496	-160.95668	-205.03215	594.94830	669.04449	-58.43646	594.53815	703.24500	
2628	26.270	-174.52820	11.30276	-72.87879	304.30359	31.14033	94.04028	-219.24811	49.86800	428.00763	285.12021	76.05848	587.74365	75.49577	812.59265	-203.61919	-13.01968	550.48877	-192.71773	135.68416	556.93976	-161.06540	-205.13838	595.40509	669.41656	-58.93068	595.28027	703.41010	
2629	26.280	-173.18169	10.96838	-72.46960	305.98709	30.87967	94.32126	-218.13454	49.41886	428.18912	285.53802	75.20934	586.86731	75.77231	812.08124	-203.49269	-13.05658	550.12360	-192.36211	135.86984	555.98956	-160.28984	-205.07320	596.42657	669.78656	-58.81784	596.07294	703.88776	
2630	26.290	-172.77786	11.34583	-72.28323	306.27490	30.90932	94.49775	-217.22365	48.98934	428.31284	286.93155	75.10040	587.83148	76.05099	811.64850	-203.42285	-13.04695	549.73810	-191.94696	135.94666	555.51935	-159.97345	-205.22586	597.17596	670.17975	-58.67341	596.72260	704.23474	
2631	26.300	-171.72209	11.25702	-72.35658	307.16422	30.87549	94.50175	-216.38506	48.66040	428.48383	287.72430	74.38595	586.99799	76.28589	811.13745	-203.36363	-13.04760	549.52008	-191.67517	135.71245	555.50366	-160.06204	-205.03336	597.76465	670.26605	-58.77563	597.22626	704.30542	
2632	26.310	-170.81485	11.43709	-72.22783	308.87747	31.68066	95.39346	-215.17586	48.02568	428.65085	288.34741	73.81609	587.08527	76.63382	810.66589	-203.24095	-12.80043	549.00366	-191.08086	136.16827	554.83490	-159.25035	-204.76266	598.42596	670.63007	-58.20278	597.83105	705.14789	
2633	26.320	-169.96150	11.52879	-71.70345	309.07626	31.30063	94.99995	-214.38252	47.89072	428.83115	289.45541	73.38127	587.19977	77.15151	810.13483	-203.09140	-12.64762	548.65833	-190.64017	136.86145	553.55817	-157.72780	-204.31055	599.08337	671.38080	-57.94976	598.44751	705.37433	
2634	26.330	-169.15482	11.61166	-71.52106	310.12381	31.08121	94.85029	-213.21170	47.30966	428.85925	290.53690	72.67432	587.33826	77.44695	809.66504	-202.95793	-12.42105	548.25006	-190.22646	135.95016	554.67932	-159.47910	-204.31221	599.55591	671.27527	-57.59357	598.88055	705.54425	
2635	26.340	-167.90240	11.61595	-71.44663	310.75479	30.75017	95.04605	-212.40475	46.83855	429.04810	291.40613	72.18218	587.34283	77.82022	809.24969	-202.80663	-12.14361	547.77240	-189.86607	136.96361	553.39850	-158.08368	-203.95241	600.21460	671.78711	-57.84791	599.41614	705.73383	
2636	26.350	-166.64143	11.46181	-71.30602	311.86804	30.91759	95.28476	-211.62723	46.34844	429.16803	292.80212	71.55627	587.54291	78.35041	808.76263	-202.59024	-12.35359	548.23297	-189.85544	137.25749	552.89532	-157.55811	-203.50446	600.74298	672.31549	-56.93619	599.87280	706.41095	
2637	26.360	-166.02232	11.82957	-71.05771	313.16794	31.08110	95.54887	-210.14888	45.63079	429.37772	293.27356	70.68546	587.56195	78.81194	808.33948	-202.43269	-12.09766	547.90686	-189.43240	137.74933	552.31494	-157.05843	-203.07285	601.09766	672.47534	-56.60405	600.34387	706.62384	
2638	26.370	-165.04622	11.94552	-70.84946	313.60965	31.07344	95.68318	-209.47664	45.14089	429.45612	294.73544	70.13153	587.83832	79.35316	807.79480	-202.31422	-11.87051	547.54388	-189.01955	138.35785	551.30243	-155.40068	-202.70622	601.72949	672.89081	-56.32676	600.67810	707.23688	
2639	26.380	-163.45274	11.64251	-70.62888	314.61859	31.23608	95.72639	-208.22420	44.43961	429.75534	295.56351	69.36454	587.87775	79.73801	807.32507	-202.08102	-11.74745	547.22076	-188.80367	137.82701	551.92786	-156.77129	-202.55827	602.10858	673.70471	-56.13252	600.89551	707.34558	
